# xmcd
#
# Track frame offsets:
#	150
#	17505
#	33351
#	53143
#	69543
#	88061
#	105440
#	119786
#	134440
#	154136
#	168714
#	183908
#	202414
#	217810
#
# Disc length: 3113 seconds
#
# Revision: 0
# Processed by: cddbd v1.5.2PL0 Copyright (c) Steve Scherf et al.
# Submitted via: EasyCDDAExtractor 16.0.6.1
#
DISCID=c90c270e
DTITLE=Φαραντούρη Μαρία - Οδύσσεια-Μ. Θεοδωράκης
DYEAR=2010
DGENRE=Έντεχνη
TTITLE0=Φαραντούρη Μαρία - Δίπλα στη θάλασσα [π. Κώστας Καρτελιάς]
TTITLE1=Φαραντούρη Μαρία - Το τραγούδι των συντρόφων [π. Κώστας Καρτελιάς]
TTITLE2=Φαραντούρη Μαρία - Ναυαγός [π. Κώστας Καρτελιάς]
TTITLE3=Φαραντούρη Μαρία - Το τραγούδι των Σειρήνων [π. Κώστας Καρτελιάς]
TTITLE4=Θεοδωράκης Μίκης - Στον Κάτω Κόσμο [π. Κώστας Καρτελιάς]
TTITLE5=Φαραντούρη Μαρία - Στην Καλυψώ [π. Κώστας Καρτελιάς]
TTITLE6=Φαραντούρη Μαρία - Η ωραία Ελένη [π. Κώστας Καρτελιάς]
TTITLE7=Φαραντούρη Μαρία - Κίρκη [π. Κώστας Καρτελιάς]
TTITLE8=Φαραντούρη Μαρία - Σαν το θηρίο [π. Κώστας Καρτελιάς]
TTITLE9=Φαραντούρη Μαρία - Ο έρωτας θεός [π. Κώστας Καρτελιάς]
TTITLE10=Φαραντούρη Μαρία - Θάλασσα μάγισσα [π. Κώστας Καρτελιάς]
TTITLE11=Φαραντούρη Μαρία - Στη Ναυσικά [π. Κώστας Καρτελιάς]
TTITLE12=Φαραντούρη Μαρία - Το τραγούδι της Πηνελόπης [π. Κώστας Καρτελιάς]
TTITLE13=Φαραντούρη Μαρία - Χωρίς ταυτότητα [π. Κώστας Καρτελιάς]
EXTD=
EXTT0=
EXTT1=
EXTT2=
EXTT3=
EXTT4=
EXTT5=
EXTT6=
EXTT7=
EXTT8=
EXTT9=
EXTT10=
EXTT11=
EXTT12=
EXTT13=
PLAYORDER=
